<?xml version="1.0" encoding="UTF-8"?><svg id="Layer_2" xmlns="http://www.w3.org/2000/svg" viewBox="0 0 1062 1010"><defs><style>.cls-1{fill:#fff;stroke:#fff;stroke-miterlimit:10;stroke-width:10px;}</style></defs><path class="cls-1" d="M533,75.67c58.09,0,114.36,11.55,167.25,34.33,46.22,19.91,88.02,47.54,124.47,82.26-76.47,84.19-118.39,192.48-118.39,306.74s41.92,222.55,118.39,306.74c-36.45,34.72-78.25,62.35-124.47,82.26-52.89,22.78-109.16,34.33-167.25,34.33s-114.74-11.63-167.79-34.56c-46.4-20.06-88.32-47.9-124.83-82.88,75.97-84.08,117.61-192.05,117.61-305.89s-41.64-221.81-117.61-305.89c36.51-34.98,78.43-62.82,124.83-82.88,53.05-22.93,109.5-34.56,167.79-34.56m0-16.67c-123.93,0-235.86,51.25-315.83,133.69,76.84,79.22,124.17,187.23,124.17,306.31s-47.32,227.09-124.17,306.31c79.97,82.44,191.91,133.69,315.83,133.69s235.09-50.9,315-132.84c-77.33-79.29-125-187.65-125-307.16s47.67-227.87,125-307.16c-79.91-81.94-191.5-132.84-315-132.84h0Z"/><path class="cls-1" d="M217.17,217.14c69.45,77.69,107.5,177.1,107.5,281.86s-38.05,204.17-107.5,281.86c-69.45-77.69-107.5-177.1-107.5-281.86s38.05-204.17,107.5-281.86m0-24.45c-76.84,79.22-124.17,187.23-124.17,306.31s47.32,227.09,124.17,306.31c76.84-79.22,124.17-187.23,124.17-306.31s-47.32-227.09-124.17-306.31h0Z"/><path class="cls-1" d="M848,216.22c69.99,77.82,108.33,177.57,108.33,282.78s-38.34,204.96-108.33,282.78c-69.99-77.82-108.33-177.57-108.33-282.78s38.34-204.96,108.33-282.78m0-24.38c-77.33,79.29-125,187.65-125,307.16s47.67,227.87,125,307.16c77.33-79.29,125-187.65,125-307.16s-47.67-227.87-125-307.16h0Z"/></svg>