<?xml version="1.0" encoding="UTF-8"?><svg id="Layer_4" xmlns="http://www.w3.org/2000/svg" viewBox="0 0 1274 1010"><defs><style>.cls-1{fill:#fff;}</style></defs><path class="cls-1" d="M157.36,839.16c-4.89,0-8.98-3.72-9.43-8.6L76.9,64.36c-.25-2.65,.64-5.29,2.43-7.25,1.79-1.97,4.34-3.09,7-3.09H987.78c4.12,0,7.77,2.66,9.02,6.59l240.75,753.89c.91,2.86,.42,5.99-1.34,8.42-1.76,2.44-4.57,3.89-7.57,3.93l-1071.17,12.31s-.07,0-.11,0ZM96.72,72.95l69.27,747.16,1049.62-12.06L980.87,72.95H96.72Z"/><path class="cls-1" d="M127.54,967.49c-.07,0-.13,0-.2,0h-.76c-4.85,0-8.92-3.67-9.42-8.5L38.55,199.42c-.12-1.2-.02-2.41,.31-3.56L77.22,60.89c1.43-5.03,6.67-7.95,11.7-6.52,5.03,1.43,7.95,6.67,6.52,11.7L57.58,199.28l72.89,704.27,17.67-76.01c.99-4.25,4.75-7.28,9.12-7.33l1071.17-12.31s.07,0,.11,0c3.14,0,6.09,1.56,7.85,4.17,1.78,2.64,2.12,6,.89,8.94l-58.61,140.64c-1.47,3.53-4.92,5.83-8.74,5.83H127.73c-.07,0-.13,0-.2,0Zm11.92-18.94H1163.6l50.65-121.54-1049.35,12.06-25.45,109.48Z"/><path class="cls-1" d="M367.14,636h-24.11c-5.23,0-9.47-4.24-9.47-9.47v-27.76c0-3.12,1.54-6.04,4.11-7.8l47.79-32.86c4.31-2.96,10.21-1.87,13.17,2.44,.31,.46,.58,.93,.81,1.42l271.89-253.96c1.39-1.3,3.15-2.15,5.04-2.44,80.01-12.2,103.61-22.54,110.44-27-.16-.07-.31-.13-.43-.17-.79-.28-1.53-.66-2.22-1.14-.59-.41-59.04-40.94-90.83-62.45-2.13-1.44-2.8-1.11-3.12-.96-.97,.47-9.73,5.7-17.4,44.51-4.26,21.57-5.92,42.25-5.93,42.45-.41,5.21-4.97,9.12-10.18,8.7-5.21-.41-9.11-4.97-8.7-10.18,.07-.88,1.74-21.84,6.2-44.48,4.18-21.19,11.6-50.27,27.79-58.07,6.97-3.36,14.76-2.53,21.95,2.33,29.66,20.07,82.41,56.61,90.08,61.92,7.22,2.95,14.75,9.33,13.88,18.45-.9,9.46-10.14,16.75-29.96,23.65-20.21,7.04-52.44,14-95.82,20.71l-269.82,252.02-37.27,55.91c-1.76,2.64-4.71,4.22-7.88,4.22Zm-14.64-18.94h9.58l24.48-36.71-34.05,23.41v13.3Z"/><path class="cls-1" d="M503.96,592.72c-.61,0-1.22-.06-1.83-.18l-23.66-4.66c-2.46-.48-4.64-1.93-6.04-4.01s-1.91-4.64-1.43-7.11l5.36-27.24c.6-3.06,2.67-5.63,5.54-6.86l53.24-23.01c4.8-2.08,10.38,.14,12.45,4.94,.22,.51,.39,1.03,.52,1.55l315.81-196.68c1.62-1.01,3.5-1.51,5.41-1.42,80.86,3.47,106.02-2.11,113.58-5.17-.14-.1-.27-.19-.39-.25-.72-.43-1.38-.95-1.96-1.55-.5-.51-50.03-51.57-77.07-78.81-1.81-1.82-2.53-1.63-2.87-1.54-1.05,.27-10.65,3.71-25.66,40.31-8.35,20.35-13.96,40.31-14.02,40.51-1.41,5.04-6.64,7.98-11.67,6.57-5.04-1.41-7.98-6.63-6.57-11.67,.24-.85,5.93-21.09,14.67-42.45,8.19-19.99,21.09-47.08,38.48-51.61,7.49-1.95,14.97,.37,21.09,6.53,25.23,25.41,69.93,71.46,76.43,78.15,6.51,4.29,12.68,12,10.06,20.78-2.71,9.11-13.19,14.48-33.96,17.43-21.19,3-54.16,3.61-98.01,1.82l-313.4,195.19-47.37,47.66c-1.8,1.81-4.22,2.8-6.72,2.8Zm-12.54-21.59l9.39,1.85,31.1-31.3-37.93,16.39-2.57,13.05Z"/></svg>