<?xml version="1.0" encoding="UTF-8"?><svg id="Layer_5" xmlns="http://www.w3.org/2000/svg" viewBox="0 0 1199.5 919.14"><defs><style>.cls-1{fill:#fff;}</style></defs><path class="cls-1" d="M437.01,680.49l-64.42-64.42L926.8,21.65c28.87-28.87,75.83-28.87,104.7,0,28.87,28.87,28.87,75.83,0,104.7l-.27,.26L437.01,680.49Zm-34.45-64.94l34.97,34.97L1016.38,110.97c20.33-20.47,20.29-53.66-.13-74.08-20.42-20.42-53.61-20.46-74.08-.13L402.56,615.55Z"/><path class="cls-1" d="M186.63,902.78l-36.26-36.26c-18.87-18.87-18.87-49.57,0-68.44l.64-.64c9.26-9.26,21.55-14.87,34.6-15.8l12.84-.92c5.45-.39,10.68-2.35,15.13-5.67l7.48-5.58,62.8,62.8-6.34,7.57c-4.83,5.76-7.19,13.06-6.65,20.53,1.14,15.77-4.62,31.22-15.8,42.4-18.87,18.87-49.57,18.87-68.44,0Zm13.35-100.55l-12.84,.92c-7.88,.56-15.3,3.95-20.89,9.54l-.64,.64c-10.46,10.46-10.46,27.48,0,37.94l36.26,36.26c10.46,10.46,27.48,10.46,37.94,0,6.75-6.75,10.22-16.08,9.54-25.6-.7-9.73,1.4-19.27,5.98-27.67l-36.98-36.98c-5.74,2.8-11.97,4.49-18.38,4.95h0Z"/><path class="cls-1" d="M269.95,848.88l-66.37-66.37,9.99-7.45c1.26-.94,2.29-1.82,3.16-2.68l37.15-37.15,64.04,64.04-38.71,38.71c-.53,.53-1.09,1.15-1.7,1.88l-7.56,9.03Zm-34.36-64.86l33.54,33.54,18.3-18.3-33.54-33.54-18.3,18.3Z"/><path class="cls-1" d="M302.68,814.51l-64.04-64.04,48.79-48.79,64.04,64.04-48.79,48.79Zm-33.54-64.04l33.54,33.54,18.3-18.3-33.54-33.54-18.3,18.3Z"/><path class="cls-1" d="M336.22,780.97l-64.04-64.04,48.79-48.79,64.04,64.04-48.79,48.79Zm-33.54-64.04l33.54,33.54,18.3-18.3-33.54-33.54-18.3,18.3Z"/><path class="cls-1" d="M369.76,747.42l-64.04-64.04,48.79-48.79,64.04,64.04-48.79,48.79Zm-33.54-64.04l33.54,33.54,18.3-18.3-33.54-33.54-18.3,18.3Z"/><path class="cls-1" d="M403.31,713.88l-64.04-64.04,27.2-27.2,20.84-22.35,65.48,65.48-20.33,18.95-29.15,29.15Zm-33.54-64.04l33.54,33.54,14.31-14.3,4.13-3.85-33.9-33.9-6,6.43-12.08,12.08Z"/></svg>