<?xml version="1.0" encoding="UTF-8"?><svg id="Layer_1" xmlns="http://www.w3.org/2000/svg" viewBox="0 0 1011 1080"><defs><style>.cls-1{fill:none;stroke:#fff;stroke-miterlimit:10;stroke-width:20px;}</style></defs><path class="cls-1" d="M828.08,984H185.92c-62.36,0-112.92-50.56-112.92-112.92v26c0,62.36,50.56,112.92,112.92,112.92H828.08c62.36,0,112.92-50.56,112.92-112.92v-26c0,62.36-50.56,112.92-112.92,112.92Z"/><path class="cls-1" d="M231.2,752h-45.28c-62.36,0-112.92,50.56-112.92,112.92v6.16c0,62.36,50.56,112.92,112.92,112.92H828.08c62.36,0,112.92-50.56,112.92-112.92v-6.16c0-62.36-50.56-112.92-112.92-112.92h-47.27c8.33,42.29,13.54,68.98,13.54,69.55,0,43.33-129.1,78.45-288.35,78.45s-288.35-35.12-288.35-78.45c0-.83,5.21-27.47,13.55-69.55"/><path class="cls-1" d="M732,505.13c-6.53-32.94-13.09-66.03-19.42-97.94-52.31,14.48-125.11,23.46-205.62,23.46s-154.47-9.13-206.87-23.81c-6.38,31.87-12.99,64.91-19.57,97.82,52.81,18.2,134.61,29.88,226.45,29.88s172.2-11.48,225.04-29.4Z"/><path class="cls-1" d="M712.58,407.19c-25.84-130.3-47.8-240.87-47.8-240.87-10.95-55.4-59.54-95.32-116.01-95.32h-84.48c-56.47,0-105.06,39.92-116.01,95.32,0,0-22.14,110.37-48.2,240.52,52.4,14.68,125.71,23.81,206.87,23.81s153.31-8.98,205.62-23.46Z"/><path class="cls-1" d="M780.81,752c-11.92-60.55-30.23-153.09-48.82-246.87-52.85,17.92-134.01,29.4-225.04,29.4s-173.64-11.68-226.45-29.88c-18.78,93.94-37.29,186.69-49.31,247.34"/></svg>