<?xml version="1.0" encoding="utf-8"?>
<!-- Generator: Adobe Illustrator 26.3.1, SVG Export Plug-In . SVG Version: 6.00 Build 0)  -->
<svg version="1.1" id="Layer_1" xmlns="http://www.w3.org/2000/svg" xmlns:xlink="http://www.w3.org/1999/xlink" x="0px" y="0px"
	 viewBox="0 0 1888 736" style="enable-background:new 0 0 1888 736;" xml:space="preserve">
<style type="text/css">
	.st0{fill:#FFFFFF;stroke:#FFFFFF;stroke-width:4;stroke-miterlimit:10;}
</style>
<g id="Layer_9">
	<g id="windows">
		<path class="st0" d="M1865.6,664l-1.6-1.6l0,0l-1.6-1.6l0,0l-1.6-1.6l0,0l-1.6-1.6l0,0l-1.6-1.6l0,0l-3.2-3.2l0,0l-1.6-1.6l0,0
			l-1.6-1.6l0,0l-1.6-1.6l0,0l-1.6-1.6l0,0l-1.6-1.6l0,0l-1.6-1.6l0,0l-1.6-1.6l0,0l-3.2-3.2l0,0l-1.6-1.6l0,0l-1.6-1.6l0,0
			l-1.6-1.6l0,0l-1.6-1.6l0,0l-1.6-1.6l0,0l-3.2-3.2l0,0l-1.6-1.6l0,0l-1.6-1.6l0,0l-1.6-1.6l0,0l-1.6-1.6l0,0l-1.6-1.6l0,0
			l-1.6-1.6l0,0l-1.6-1.6l0,0l-3.2-3.2l0,0l-1.6-1.6l0,0l-1.6-1.6l0,0l-1.6-1.6l0,0l-1.6-1.6l0,0l-1.6-1.6l0,0l-3.2-3.2l0,0
			l-1.6-1.6l0,0l-1.6-1.6l0,0l-1.6-1.6l0,0l-1.6-1.6l0,0l-1.6-1.6l0,0l-1.6-1.6l0,0l-1.6-1.6l0,0l-3.2-3.2l0,0l-1.6-1.6l0,0
			l-1.6-1.6l0,0l-1.6-1.6l0,0l-1.6-1.6l0,0l-1.6-1.6l0,0l-3.2-3.2l0,0l-1.6-1.6l0,0l-1.6-1.6l0,0l-1.6-1.6l0,0l-81.2-81.2l-3.5,3.5
			c-11.8,11.8-26.8,19.6-43.1,22.4c1.6-9.2,4.8-18,9.4-26c6.9-12.1,17-22.5,29.8-29.9c12.6-7.3,26.6-10.8,40.4-10.8
			c20.9,0,41.7,8.1,57.2,23.7l3.5,3.5l81.2-81.2l-1.6-1.6l0,0l-1.6-1.6l0,0l-1.6-1.6l0,0l-1.6-1.6l0,0l-1.6-1.6l-1.6-1.6l0,0
			l-1.6-1.6l0,0l-1.6-1.6l0,0l-1.6-1.6l0,0l-1.6-1.6l0,0l-1.6-1.6l0,0l-1.6-1.6l-1.6-1.6l0,0l-1.6-1.6l0,0l-1.6-1.6l0,0l-2-2
			l-1.2-1.1l0,0l-1.6-1.6l0,0l-1.6-1.6l0,0l-1.6-1.6l0,0l-1.6-1.6l0,0l-1.6-1.6l0,0l-1.6-1.6l0,0l-1.6-1.6l0,0l-1.6-1.6l0,0
			l-1.6-1.6l0,0l-1.6-1.6l0,0l-1.6-1.6l0,0l-1.6-1.6l0,0l-1.6-1.6l0,0l-1.6-1.6l0,0l-2.3-2.3l-0.8-0.9l0,0l-1.6-1.6l0,0l-1.6-1.6
			l0,0l-1.6-1.6l0,0l-1.6-1.6l0,0l-1.6-1.6l0,0l-2.3-2.3l-0.8-0.9l0,0l-1.6-1.6l0,0l-1.6-1.6l0,0l-1.6-1.6l0,0l-1.6-1.6l0,0
			l-1.6-1.6l0,0l-1.6-1.6l0,0l-1.6-1.6l0,0l-2.3-2.3l-0.8-0.9l0,0l-1.6-1.6l0,0l-1.6-1.6l0,0l-1.6-1.6l-1.6-1.6l0,0l-1.6-1.6l0,0
			l-2.3-2.3l-0.8-0.9l0,0l-1.6-1.6l0,0l-1.6-1.6l0,0l-1.6-1.6l0,0l-3.5-3.5c-38.2-38.2-88.3-57.3-138.4-57.3
			c-50.1,0-100.2,19.1-138.4,57.3c-29.4,29.5-47.6,66-54.3,104.1c-3-3.4-6-6.6-9.2-9.7c-0.5-0.5-1.1-1.1-1.6-1.6
			c-0.5-0.5-1.1-1.1-1.6-1.6c-0.5-0.5-1.1-1.1-1.6-1.6c-0.5-0.5-1.1-1.1-1.6-1.6c-0.5-0.5-1.1-1.1-1.6-1.6c-0.5-0.5-1.1-1.1-1.6-1.6
			c-0.5-0.5-1.1-1.1-1.6-1.6c-0.5-0.5-1.1-1.1-1.6-1.6c-0.5-0.5-1.1-1.1-1.6-1.6c-0.5-0.5-1.1-1.1-1.6-1.6c-0.5-0.5-1.1-1.1-1.6-1.6
			c-0.5-0.5-1.1-1.1-1.6-1.6c-0.5-0.5-1.1-1.1-1.6-1.6c-0.5-0.5-1.1-1.1-1.6-1.6c-0.5-0.5-1.1-1.1-1.6-1.6c-0.5-0.5-1.1-1.1-1.6-1.6
			c-0.5-0.5-1.1-1.1-1.6-1.6c-0.5-0.5-1.1-1.1-1.6-1.6c-0.5-0.5-1.1-1.1-1.6-1.6c-0.5-0.5-1.1-1.1-1.6-1.6c-0.5-0.5-1.1-1.1-1.6-1.6
			c-0.5-0.5-1.1-1.1-1.6-1.6c-0.5-0.5-1.1-1.1-1.6-1.6c-0.5-0.5-1.1-1.1-1.6-1.6c-0.5-0.5-1.1-1.1-1.6-1.6c-0.5-0.5-1.1-1.1-1.6-1.6
			c-0.5-0.5-1.1-1.1-1.6-1.6c-0.5-0.5-1.1-1.1-1.6-1.6c-0.5-0.5-1.1-1.1-1.6-1.6c-0.5-0.5-1.1-1.1-1.6-1.6c-0.5-0.5-1.1-1.1-1.6-1.6
			c-0.5-0.5-1.1-1.1-1.6-1.6c-0.5-0.5-1.1-1.1-1.6-1.6c-0.5-0.5-1.1-1.1-1.6-1.6c-0.5-0.5-1.1-1.1-1.6-1.6c-0.5-0.5-1.1-1.1-1.6-1.6
			c-0.5-0.5-1.1-1.1-1.6-1.6c-0.5-0.5-1.1-1.1-1.6-1.6c-0.5-0.5-1.1-1.1-1.6-1.6c-0.5-0.5-1.1-1.1-1.6-1.6c-0.5-0.5-1.1-1.1-1.6-1.6
			c-0.5-0.5-1.1-1.1-1.6-1.6c-0.5-0.5-1.1-1.1-1.6-1.6c-0.5-0.5-1.1-1.1-1.6-1.6c-0.5-0.5-1.1-1.1-1.6-1.6c-0.5-0.5-1.1-1.1-1.6-1.6
			c-0.5-0.5-1.1-1.1-1.6-1.6c-0.5-0.5-1.1-1.1-1.6-1.6c-0.5-0.5-1.1-1.1-1.6-1.6c-0.5-0.5-1.1-1.1-1.6-1.6c-0.5-0.5-1.1-1.1-1.6-1.6
			c-0.5-0.5-1.1-1.1-1.6-1.6c-0.5-0.5-1.1-1.1-1.6-1.6c-0.5-0.5-1.1-1.1-1.6-1.6c-0.5-0.5-1.1-1.1-1.6-1.6c-0.5-0.5-1.1-1.1-1.6-1.6
			c-0.5-0.5-1.1-1.1-1.6-1.6c-0.5-0.5-1.1-1.1-1.6-1.6c-33.1-33.5-77.9-54.6-126.4-57.8V111.3h-1.6v-1.6h-1.6v-1.6h-1.6v-1.6h-1.6
			v-1.6h-1.6v-1.6h-1.6v-1.6h-1.6v-1.6h-1.6v-1.6h-1.6V97h-1.6v-1.6h-1.6v-1.6h-1.6v-1.6h-1.6v-1.6h-1.6V89h-1.6v-1.6h-1.6v-1.6
			h-1.6v-1.6h-1.6v-1.6h-1.6v-1.6h-1.6v-1.6h-1.6v-1.6h-1.6v-1.6h-1.6v-1.6h-1.6v-1.6h-1.6v-1.6h-1.6v-1.6h-1.6v-1.6h-1.6v-1.6h-1.6
			v-1.6h-1.6v-1.6h-1.6V62h-1.6v-1.6h-1.6v-1.6h-1.6v-1.6h-1.6v-1.6h-1.6V54h-1.6v-1.6h-1.6v-1.6h-1.6v-1.6h-1.6v-1.6h-1.6v-1.6
			h-1.6v-1.6h-1.6v-1.6h-1.6v-1.6h-1.6v-1.6h-1.6v-1.6h-1.6v-1.6h-1.6v-1.6h-1.6v-1.6h-1.6v-1.6h-1.6v-1.6h-1.6v-1.6h-1.6V27h-1.6
			v-1.6h-1.6v-1.6h-1.6v-1.6h-1.6v-1.6h-1.6V19h-1.6v-1.6h-114.8v307.4h-0.9v-1.6h-1.6v-1.6h-1.6V320h-1.6v-1.6h-1.6v-1.6h-1.6v-1.6
			h-1.6v-1.6h-1.6v-1.6h-1.6v-1.6h-1.6v-1.6h-1.6v-1.6h-1.6v-1.6h-1.6v-1.6h-1.6v-1.6H979V301h-1.6v-1.6h-1.6v-1.6h-1.6v-1.6h-1.6
			v-1.6H971V293h-1.6v-1.6h-1.6v-1.6h-1.6v-1.6h-1.6v-1.6h-1.6v-1.6h-1.6v-1.6h-1.6v-1.6h-1.6v-1.6h-1.6v-1.6h-1.6v-1.6h-1.6v-1.6
			H952v-1.6h-1.6v-1.6h-1.6v-1.6h-1.6v-1.6h-1.6v-1.6H944V266h-1.6v-1.6h-1.6v-1.6h-1.6v-1.6h-1.6v-1.6h-1.6V258h-1.6v-1.6h-1.6
			v-1.6h-1.6v-1.6h-1.6v-1.6h-1.6v-1.6h-1.6v-1.6h-1.6v-1.6h-1.6v-1.6h-1.6v-1.6h-1.6v-1.6H766.4c-35,0-66.6,14.2-89.5,37.1
			c-7.9,7.9-14.7,16.8-20.3,26.5h-0.7v-1.6h-1.6v-1.6h-1.6V301h-1.6v-1.6h-1.6v-1.6h-1.6v-1.6h-1.6v-1.6h-1.6V293h-1.6v-1.6h-1.6
			v-1.6H640v-1.6h-1.6v-1.6h-1.6v-1.6h-1.6v-1.6h-1.6v-1.6H632v-1.6h-1.6v-1.6h-1.6v-1.6h-1.6v-1.6h-1.6v-1.6h-1.6v-1.6h-1.6v-1.6
			h-1.6v-1.6h-1.6v-1.6h-1.6V266h-1.6v-1.6h-1.6v-1.6h-1.6v-1.6h-1.6v-1.6h-1.6V258h-1.6v-1.6h-1.6v-1.6H605v-1.6h-1.6v-1.6h-1.6
			v-1.6h-1.6v-1.6h-1.6v-1.6H597v-1.6h-1.6v-1.6h-1.6v-1.6h-5H479v219.2v0c0,0.2,0,0.4,0,0.6c0,17.7-8.1,34.3-21.7,45.1V335.9h-1.6
			v-1.6h-1.6v-1.6h-1.6v-1.6h-1.6v-1.6h-1.6V328h-1.6v-1.6h-1.6v-1.6h-1.6v-1.6H443v-1.6h-1.6V320h-1.6v-1.6h-1.6v-1.6h-1.6v-1.6
			H435v-1.6h-1.6v-1.6h-1.6v-1.6h-1.6v-1.6h-1.6v-1.6h-1.6v-1.6h-1.6v-1.6h-1.6v-1.6h-1.6V301h-1.6v-1.6h-1.6v-1.6h-1.6v-1.6H416
			v-1.6h-1.6V293h-1.6v-1.6h-1.6v-1.6h-1.6v-1.6H408v-1.6h-1.6v-1.6h-1.6v-1.6h-1.6v-1.6h-1.6v-1.6h-1.6v-1.6h-1.6v-1.6h-1.6v-1.6
			h-1.6v-1.6h-1.6v-1.6h-1.6v-1.6h-1.6v-1.6h-1.6v-1.6h-1.6V266h-1.6v-1.6h-1.6v-1.6h-1.6v-1.6H381v-1.6h-1.6V258h-1.6v-1.6h-1.6
			v-1.6h-1.6v-1.6H373v-1.6h-1.6v-1.6h-1.6v-1.6h-1.6v-1.6h-1.6v-1.6h-1.6v-1.6h-1.6v-1.6H248.6v219.2c0,16-6.5,30.4-16.9,40.9
			c-1.5,1.5-3.1,2.9-4.8,4.3V335.9h-1.6v-1.6h-1.6v-1.6h-1.6v-1.6h-1.6v-1.6H219V328h-1.6v-1.6h-1.6v-1.6h-1.6v-1.6h-1.6v-1.6H211
			V320h-1.6v-1.6h-1.6v-1.6h-1.6v-1.6h-1.6v-1.6h-1.6v-1.6h-1.6v-1.6h-1.6v-1.6h-1.6v-1.6h-1.6v-1.6h-1.6v-1.6h-1.6v-1.6h-1.6V301
			h-1.6v-1.6h-1.6v-1.6h-1.6v-1.6h-1.6v-1.6H184V293h-1.6v-1.6h-1.6v-1.6h-1.6v-1.6h-1.6v-1.6H176v-1.6h-1.6v-1.6h-1.6v-1.6h-1.6
			v-1.6h-1.6v-1.6h-1.6v-1.6h-1.6v-1.6h-1.6v-1.6h-1.6v-1.6h-1.6v-1.6h-1.6v-1.6h-1.6v-1.6h-1.6V266h-1.6v-1.6h-1.6v-1.6h-1.6v-1.6
			h-1.6v-1.6H149V258h-1.6v-1.6h-1.6v-1.6h-1.6v-1.6h-1.6v-1.6H141v-1.6h-1.6v-1.6h-1.6v-1.6h-1.6v-1.6h-1.6v-1.6h-1.6v-1.6H18.2
			v219.2l0,0v0.1c0,46.9,19,90.8,51.2,122.6c0.5,0.5,1.1,1.1,1.6,1.6s1.1,1.1,1.6,1.6c0.5,0.5,1.1,1.1,1.6,1.6
			c0.5,0.5,1.1,1.1,1.6,1.6s1.1,1.1,1.6,1.6c0.5,0.5,1.1,1.1,1.6,1.6c0.5,0.5,1.1,1.1,1.6,1.6c0.5,0.5,1.1,1.1,1.6,1.6
			c0.5,0.5,1.1,1.1,1.6,1.6s1.1,1.1,1.6,1.6c0.5,0.5,1.1,1.1,1.6,1.6c0.5,0.5,1.1,1.1,1.6,1.6s1.1,1.1,1.6,1.6s1.1,1.1,1.6,1.6
			s1.1,1.1,1.6,1.6s1.1,1.1,1.6,1.6s1.1,1.1,1.6,1.6s1.1,1.1,1.6,1.6s1.1,1.1,1.6,1.6s1.1,1.1,1.6,1.6c0.5,0.5,1.1,1.1,1.6,1.6
			c0.5,0.5,1.1,1.1,1.6,1.6s1.1,1.1,1.6,1.6s1.1,1.1,1.6,1.6s1.1,1.1,1.6,1.6s1.1,1.1,1.6,1.6s1.1,1.1,1.6,1.6s1.1,1.1,1.6,1.6
			s1.1,1.1,1.6,1.6c0.5,0.5,1.1,1.1,1.6,1.6s1.1,1.1,1.6,1.6s1.1,1.1,1.6,1.6s1.1,1.1,1.6,1.6s1.1,1.1,1.6,1.6
			c0.5,0.5,1.1,1.1,1.6,1.6c0.5,0.5,1.1,1.1,1.6,1.6s1.1,1.1,1.6,1.6c0.5,0.5,1.1,1.1,1.6,1.6c0.5,0.5,1.1,1.1,1.6,1.6
			c0.5,0.5,1.1,1.1,1.6,1.6c0.5,0.5,1.1,1.1,1.6,1.6s1.1,1.1,1.6,1.6s1.1,1.1,1.6,1.6c0.5,0.5,1.1,1.1,1.6,1.6s1.1,1.1,1.6,1.6
			s1.1,1.1,1.6,1.6c0.5,0.5,1.1,1.1,1.6,1.6c0.5,0.5,1.1,1.1,1.6,1.6c0.5,0.5,1.1,1.1,1.6,1.6c0.5,0.5,1.1,1.1,1.6,1.6
			s1.1,1.1,1.6,1.6s1.1,1.1,1.6,1.6s1.1,1.1,1.6,1.6s1.1,1.1,1.6,1.6c0.5,0.5,1.1,1.1,1.6,1.6c0.5,0.5,1.1,1.1,1.6,1.6
			c0.5,0.5,1.1,1.1,1.6,1.6c0.5,0.5,1.1,1.1,1.6,1.6c15.4,15.6,33.9,28.5,54.8,37.5c22,9.5,45.1,14,68.1,14
			c41.8,0,83.1-15.2,115.3-44.2c32.2,28.9,73.5,44.2,115.3,44.2c23,0,46.2-4.6,68.1-14c42.7-18.4,75.3-52.7,92-94.3v14.3h1.6v1.6
			h1.6v1.6h1.6v1.6h1.6v1.5h1.6v1.6h1.6v1.6h1.6v1.6h1.6v1.6h1.6v1.6h1.6v1.6h1.6v1.6h1.6v1.6h1.6v1.6h1.6v1.6h1.6v1.6h1.6v1.6h1.6
			v1.6h1.6v1.6h1.6v1.6h1.6v1.6h1.6v1.6h1.6v1.6h1.6v1.6h1.6v1.6h1.6v1.6h1.6v1.6h1.6v1.6h1.6v1.6h1.6v1.6h1.6v1.6h1.6v1.6h1.6v1.6
			h1.6v1.6h1.6v1.6h1.6v1.6h1.6v1.6h1.6v1.6h1.6v1.6h1.6v1.6h1.6v1.6h1.6v1.6h1.6v1.6h1.6v1.6h1.6v1.6h1.6v1.6h1.6v1.6h1.6v1.6h1.6
			v1.6h1.6v1.6h1.6v1.6h1.6v1.6h1.6v1.6h1.6v1.6h1.6v1.6h1.6v1.6h1.6v1.6h1.6v1.6h1.6v1.6h1.6v1.6h155.4h0
			c45-0.6,85.9-25,107.9-63.3h1.5v1.6h1.6v1.6h1.6v1.6h1.6v1.6h1.6v1.6h1.6v1.6h1.6v1.6h1.6v1.6h1.6v1.6h1.6v1.6h1.6v1.6h1.6v1.6
			h1.6v1.6h1.6v1.6h1.6v1.6h1.6v1.6h1.6v1.6h1.6v1.6h1.6v1.6h1.6v1.6h1.6v1.6h1.6v1.6h1.6v1.6h1.6v1.6h1.6v1.6h1.6v1.6h1.6v1.6h1.6
			v1.6h1.6v1.6h1.6v1.6h1.6v1.6h1.6v1.6h1.6v1.6h1.6v1.6h1.6v1.6h1.6v1.6h1.6v1.6h1.6v1.6h1.6v1.6h1.6v1.6h114.8v-17.5
			c25.9,11.8,53.5,17.5,80.9,17.5c47.6,0,94.6-17.3,131.4-50.6c32.9-29.8,53.9-69,61.3-110.8c2.7,3.1,5.6,6.1,8.5,9.1
			c0.3,0.3,0.5,0.5,0.8,0.8c0.3,0.3,0.5,0.5,0.8,0.8s0.5,0.5,0.8,0.8c0.3,0.3,0.5,0.5,0.8,0.8c0.3,0.3,0.5,0.5,0.8,0.8
			c0.3,0.3,0.5,0.5,0.8,0.8s0.5,0.5,0.8,0.8c0.3,0.3,0.5,0.5,0.8,0.8c0.3,0.3,0.5,0.5,0.8,0.8c0.3,0.3,0.5,0.5,0.8,0.8
			c0.3,0.3,0.5,0.5,0.8,0.8c0.3,0.3,0.5,0.5,0.8,0.8s0.5,0.5,0.8,0.8c0.3,0.3,0.5,0.5,0.8,0.8c0.3,0.3,0.5,0.5,0.8,0.8
			c0.3,0.3,0.5,0.5,0.8,0.8c0.3,0.3,0.5,0.5,0.8,0.8c0.3,0.3,0.5,0.5,0.8,0.8s0.5,0.5,0.8,0.8c0.3,0.3,0.5,0.5,0.8,0.8
			c0.3,0.3,0.5,0.5,0.8,0.8c0.3,0.3,0.5,0.5,0.8,0.8s0.5,0.5,0.8,0.8c0.3,0.3,0.5,0.5,0.8,0.8c0.3,0.3,0.5,0.5,0.8,0.8
			c0.3,0.3,0.5,0.5,0.8,0.8c0.3,0.3,0.5,0.5,0.8,0.8c0.3,0.3,0.5,0.5,0.8,0.8s0.5,0.5,0.8,0.8c0.3,0.3,0.5,0.5,0.8,0.8
			c0.3,0.3,0.5,0.5,0.8,0.8c0.3,0.3,0.5,0.5,0.8,0.8c0.3,0.3,0.5,0.5,0.8,0.8c0.3,0.3,0.5,0.5,0.8,0.8s0.5,0.5,0.8,0.8
			c0.3,0.3,0.5,0.5,0.8,0.8c0.3,0.3,0.5,0.5,0.8,0.8c0.3,0.3,0.5,0.5,0.8,0.8s0.5,0.5,0.8,0.8c0.3,0.3,0.5,0.5,0.8,0.8
			c0.3,0.3,0.5,0.5,0.8,0.8c0.3,0.3,0.5,0.5,0.8,0.8c0.3,0.3,0.5,0.5,0.8,0.8c0.3,0.3,0.5,0.5,0.8,0.8s0.5,0.5,0.8,0.8
			c0.3,0.3,0.5,0.5,0.8,0.8c0.3,0.3,0.5,0.5,0.8,0.8c0.3,0.3,0.5,0.5,0.8,0.8c0.3,0.3,0.5,0.5,0.8,0.8c0.3,0.3,0.5,0.5,0.8,0.8
			s0.5,0.5,0.8,0.8c0.3,0.3,0.5,0.5,0.8,0.8c0.3,0.3,0.5,0.5,0.8,0.8c0.3,0.3,0.5,0.5,0.8,0.8s0.5,0.5,0.8,0.8
			c0.3,0.3,0.5,0.5,0.8,0.8c0.3,0.3,0.5,0.5,0.8,0.8c0.3,0.3,0.5,0.5,0.8,0.8c0.3,0.3,0.5,0.5,0.8,0.8c0.3,0.3,0.5,0.5,0.8,0.8
			s0.5,0.5,0.8,0.8c0.3,0.3,0.5,0.5,0.8,0.8c0.3,0.3,0.5,0.5,0.8,0.8c0.3,0.3,0.5,0.5,0.8,0.8c0.3,0.3,0.5,0.5,0.8,0.8
			c0.3,0.3,0.5,0.5,0.8,0.8s0.5,0.5,0.8,0.8c0.3,0.3,0.5,0.5,0.8,0.8c0.3,0.3,0.5,0.5,0.8,0.8c0.3,0.3,0.5,0.5,0.8,0.8
			s0.5,0.5,0.8,0.8c0.3,0.3,0.5,0.5,0.8,0.8c0.3,0.3,0.5,0.5,0.8,0.8c0.3,0.3,0.5,0.5,0.8,0.8c0.3,0.3,0.5,0.5,0.8,0.8
			c0.3,0.3,0.5,0.5,0.8,0.8s0.5,0.5,0.8,0.8c0.3,0.3,0.5,0.5,0.8,0.8c0.3,0.3,0.5,0.5,0.8,0.8c0.3,0.3,0.5,0.5,0.8,0.8
			c0.3,0.3,0.5,0.5,0.8,0.8c0.3,0.3,0.5,0.5,0.8,0.8s0.5,0.5,0.8,0.8c0.3,0.3,0.5,0.5,0.8,0.8c0.3,0.3,0.5,0.5,0.8,0.8
			c0.3,0.3,0.5,0.5,0.8,0.8s0.5,0.5,0.8,0.8c0.3,0.3,0.5,0.5,0.8,0.8c0.3,0.3,0.5,0.5,0.8,0.8c0.3,0.3,0.5,0.5,0.8,0.8
			c0.3,0.3,0.5,0.5,0.8,0.8c0.3,0.3,0.5,0.5,0.8,0.8s0.5,0.5,0.8,0.8c0.3,0.3,0.5,0.5,0.8,0.8c0.3,0.3,0.5,0.5,0.8,0.8
			c0.3,0.3,0.5,0.5,0.8,0.8c0.3,0.3,0.5,0.5,0.8,0.8c0.3,0.3,0.5,0.5,0.8,0.8s0.5,0.5,0.8,0.8c0.3,0.3,0.5,0.5,0.8,0.8
			c0.3,0.3,0.5,0.5,0.8,0.8c0.3,0.3,0.5,0.5,0.8,0.8s0.5,0.5,0.8,0.8c0.3,0.3,0.5,0.5,0.8,0.8c0.3,0.3,0.5,0.5,0.8,0.8
			c0.3,0.3,0.5,0.5,0.8,0.8c0.3,0.3,0.5,0.5,0.8,0.8c0.3,0.3,0.5,0.5,0.8,0.8s0.5,0.5,0.8,0.8c0.3,0.3,0.5,0.5,0.8,0.8
			c0.3,0.3,0.5,0.5,0.8,0.8c0.3,0.3,0.5,0.5,0.8,0.8c0.3,0.3,0.5,0.5,0.8,0.8c0.3,0.3,0.5,0.5,0.8,0.8s0.5,0.5,0.8,0.8
			c0.3,0.3,0.5,0.5,0.8,0.8c0.3,0.3,0.5,0.5,0.8,0.8c0.3,0.3,0.5,0.5,0.8,0.8c38.2,38.2,88.3,57.3,138.4,57.3
			c50.1,0,100.2-19.1,138.4-57.3l3.5-3.5L1865.6,664L1865.6,664z M684.3,556.7c0,67-39.8,127.5-101.3,154
			c-61.5,26.5-132.9,13.8-181.5-32.3c-48.6,46.1-120,58.8-181.5,32.3c-61.5-26.5-101.4-87-101.3-154V342.5h104.8v214.2
			c0,34.7,28.1,62.8,62.8,62.8c34.7,0,62.8-28.1,62.8-62.8V342.5h104.8v214.2c-0.2,22.6,11.7,43.5,31.2,54.9
			c19.5,11.3,43.6,11.3,63.1,0s31.4-32.3,31.2-54.9V342.5h104.8V556.7z M687.7,518.8V469c0.1,0.1,0.2,0.2,0.3,0.4
			c0.3,0.3,0.5,0.5,0.8,0.8c0.3,0.3,0.5,0.5,0.8,0.8c0.3,0.3,0.5,0.5,0.8,0.8c0.3,0.3,0.5,0.5,0.8,0.8c0.3,0.3,0.5,0.5,0.8,0.8
			c0.3,0.3,0.5,0.5,0.8,0.8c0.3,0.3,0.5,0.5,0.8,0.8c0.3,0.3,0.5,0.5,0.8,0.8c0.3,0.3,0.5,0.5,0.8,0.8c0.3,0.3,0.5,0.5,0.8,0.8
			c0.3,0.3,0.5,0.5,0.8,0.8c0.3,0.3,0.5,0.5,0.8,0.8c0.3,0.3,0.5,0.5,0.8,0.8c0.3,0.3,0.5,0.5,0.8,0.8c0.3,0.3,0.5,0.5,0.8,0.8
			c0.3,0.3,0.5,0.5,0.8,0.8c0.3,0.3,0.5,0.5,0.8,0.8c0.3,0.3,0.5,0.5,0.8,0.8c0.3,0.3,0.5,0.5,0.8,0.8c0.3,0.3,0.5,0.5,0.8,0.8
			c0.3,0.3,0.5,0.5,0.8,0.8c0.3,0.3,0.5,0.5,0.8,0.8c0.3,0.3,0.5,0.5,0.8,0.8c0.3,0.3,0.5,0.5,0.8,0.8c0.3,0.3,0.5,0.5,0.8,0.8
			c0.3,0.3,0.5,0.5,0.8,0.8c0.3,0.3,0.5,0.5,0.8,0.8c0.3,0.3,0.5,0.5,0.8,0.8c0.3,0.3,0.5,0.5,0.8,0.8c0.3,0.3,0.5,0.5,0.8,0.8
			c0.3,0.3,0.5,0.5,0.8,0.8c0.3,0.3,0.5,0.5,0.8,0.8c0.3,0.3,0.5,0.5,0.8,0.8c0.3,0.3,0.5,0.5,0.8,0.8c0.3,0.3,0.5,0.5,0.8,0.8
			c0.3,0.3,0.5,0.5,0.8,0.8c0.3,0.3,0.5,0.5,0.8,0.8c0.3,0.3,0.5,0.5,0.8,0.8c0.3,0.3,0.5,0.5,0.8,0.8c0.3,0.3,0.5,0.5,0.8,0.8
			c0.3,0.3,0.5,0.5,0.8,0.8c0.3,0.3,0.5,0.5,0.8,0.8c0.3,0.3,0.5,0.5,0.8,0.8c0.3,0.3,0.5,0.5,0.8,0.8c0.3,0.3,0.5,0.5,0.8,0.8
			c0.3,0.3,0.5,0.5,0.8,0.8c0.3,0.3,0.5,0.5,0.8,0.8c0.3,0.3,0.5,0.5,0.8,0.8c0.3,0.3,0.5,0.5,0.8,0.8c0.3,0.3,0.5,0.5,0.8,0.8
			c0.3,0.3,0.5,0.5,0.8,0.8c0.3,0.3,0.5,0.5,0.8,0.8c0.3,0.3,0.5,0.5,0.8,0.8c0.3,0.3,0.5,0.5,0.8,0.8c0.3,0.3,0.5,0.5,0.8,0.8
			c0.3,0.3,0.5,0.5,0.8,0.8c0.3,0.3,0.5,0.5,0.8,0.8c0.3,0.3,0.5,0.5,0.8,0.8c0.3,0.3,0.5,0.5,0.8,0.8c0.3,0.3,0.5,0.5,0.8,0.8
			c0.3,0.3,0.5,0.5,0.8,0.8c0.3,0.3,0.5,0.5,0.8,0.8c0,0,0.1,0.1,0.1,0.1L687.7,518.8L687.7,518.8z M1016,63.5l27,32.5v68.6
			l-27-32.5V63.5z M1016,153.5l27,32.5v68.6l-27-32.5V153.5z M1016,241.5l27,32.5v68.6l-27-32.5V241.5z M1016,328.5l27,32.5v68.6
			l-27-32.5V328.5z M1016,412.5l27,32.5v68.6l-27-32.5V412.5z M1037.1,648.3c-18.4,45.3-62.1,75.1-111,75.8H775.7V619.2h148.7
			c9.2,0,16.7-7.5,16.7-16.7c0-9.2-7.5-16.7-16.7-16.7h-62.6c-67.2,0-121.6-54.5-121.6-121.6c0-67.2,54.5-121.6,121.6-121.6h148.7
			v104.8H861.8c-9.3,0-16.8,7.5-16.8,16.8s7.5,16.8,16.8,16.8h62.6c32.2-0.1,63.2,12.7,86,35.6v0
			C1044.9,551.1,1055.4,603,1037.1,648.3z M1002.2,450.8v50.5l-1-1c-0.1-0.1-0.2-0.2-0.3-0.3l-1.2-1.3c-0.1-0.1-0.2-0.2-0.3-0.3
			l-1.2-1.2c-0.1-0.1-0.2-0.2-0.3-0.3l-1.2-1.3c-0.1-0.1-0.2-0.2-0.3-0.3l-1.2-1.2c-0.1-0.1-0.2-0.2-0.3-0.3l-1.2-1.2
			c-0.1-0.1-0.2-0.2-0.3-0.3l-1.2-1.2c-0.1-0.1-0.2-0.2-0.3-0.3l-1.2-1.2c-0.1-0.1-0.2-0.2-0.3-0.3l-1.2-1.2
			c-0.1-0.1-0.2-0.2-0.3-0.3l-1.2-1.2c-0.1-0.1-0.2-0.2-0.3-0.3l-1.2-1.2c-0.1-0.1-0.2-0.2-0.3-0.3l-1.2-1.2
			c-0.1-0.1-0.2-0.2-0.3-0.3l-1.2-1.2c-0.1-0.1-0.2-0.2-0.3-0.3l-1.2-1.2c-0.1-0.1-0.2-0.2-0.3-0.3l-1.2-1.2
			c-0.1-0.1-0.2-0.2-0.3-0.3l-1.2-1.3c-0.1-0.1-0.2-0.2-0.3-0.3l-1.2-1.3c-0.1-0.1-0.2-0.2-0.3-0.3l-1.2-1.3
			c-0.1-0.1-0.2-0.2-0.3-0.3l-1.2-1.3c-0.1-0.1-0.2-0.2-0.3-0.3l-1.2-1.2c-0.1-0.1-0.2-0.2-0.3-0.3l-1.2-1.2
			c-0.1-0.1-0.2-0.2-0.3-0.3l-1.2-1.2c-0.1-0.1-0.2-0.2-0.3-0.3l-1.2-1.2c-0.1-0.1-0.2-0.2-0.3-0.3l-1.2-1.2
			c-0.1-0.1-0.2-0.2-0.3-0.3l-1.2-1.2c-0.1-0.1-0.2-0.2-0.3-0.3l-1.2-1.2c-0.1-0.1-0.2-0.2-0.3-0.3l-1.2-1.2
			c-0.1-0.1-0.2-0.2-0.3-0.3l-1.2-1.2c-0.1-0.1-0.2-0.2-0.3-0.3l-1.2-1.2c-0.1-0.1-0.2-0.2-0.3-0.3l-1.2-1.2
			c-0.1-0.1-0.2-0.2-0.3-0.3l-1.2-1.2c-0.1-0.1-0.2-0.2-0.3-0.3l-1.2-1.3c-0.1-0.1-0.1-0.1-0.2-0.2L1002.2,450.8L1002.2,450.8z
			 M1083,553.5l-27-32.5v-68.6l27,32.5V553.5z M1083,469.5l-27-32.5v-68.6l27,32.5V469.5z M1083,382.5l-27-32.5v-68.6l27,32.5V382.5
			z M1083,294.5l-27-32.5v-68.6l27,32.5V294.5z M1083,204.5l-27-32.5v-68.6l27,32.5V204.5z M1421.4,675
			c-58.5,52.9-143.5,64.4-213.9,28.9v20.5h-104.8V117.8h104.8v245.4c26.6-13.5,56.1-20.5,85.9-20.5c78.9,0,149.6,48.5,178,122.2
			C1499.7,538.5,1479.8,622,1421.4,675z M1591.9,667.2c-74.5-74.5-74.5-195.3,0-269.8c74.5-74.5,195.3-74.5,269.8,0l-74.1,74.1
			c-27.5-27.5-70-33.1-103.7-13.6c-33.7,19.5-50.1,59.1-40,96.6c10.1,37.6,44.1,63.7,83,63.7c22.8,0.1,44.7-9,60.8-25.2l74.1,74.1
			C1787.2,741.7,1666.4,741.7,1591.9,667.2z"/>
		<path class="st0" d="M1354.2,457.4c-2.2-1.8-4.6-3.6-7-5.2l-0.1-0.1l0,0c-15.9-10.8-34.8-16.6-54.2-16.6
			c-19.1,0-37.8,5.7-53.5,16.2l0,0l-0.2,0.1c-2.3,1.6-4.6,3.2-6.8,5c-22.8,18.4-35.9,45.8-35.9,75.1s13.1,56.7,35.9,75.1
			c2.2,1.8,4.5,3.4,6.8,5l0.2,0.2l0,0c15.8,10.5,34.5,16.2,53.5,16.2c19.3,0,38.3-5.9,54.2-16.6l0,0l0.1-0.1c2.4-1.6,4.7-3.4,7-5.2
			c22.4-18.4,35.3-45.6,35.3-74.6S1376.7,475.8,1354.2,457.4z M1349.7,470c16.8,16.2,26.3,38.4,26.3,62s-9.5,45.8-26.3,62
			c-9.4-16.3-14.7-38.4-14.7-62S1340.3,486.3,1349.7,470z M1237,594.6c-17.2-16.2-27-38.7-27-62.6s9.8-46.3,27-62.6
			c9.6,16.3,15,38.7,15,62.6S1246.6,578.2,1237,594.6z M1244.6,604.9c12.3-18.5,19.4-44.9,19.4-72.9c0-28.1-7-54.4-19.4-72.9
			c14.3-9.6,30.9-14.6,48.4-14.6c17.5,0,34.6,5.3,49.1,15.1c-12.1,18.5-19.1,44.7-19.1,72.4s6.9,54,19.1,72.4
			c-14.4,9.8-31.5,15.1-49.1,15.1C1275.5,619.5,1258.9,614.5,1244.6,604.9z"/>
	</g>
</g>
</svg>
