<?xml version="1.0" encoding="utf-8"?>
<!-- Generator: Adobe Illustrator 26.3.1, SVG Export Plug-In . SVG Version: 6.00 Build 0)  -->
<svg version="1.1" xmlns="http://www.w3.org/2000/svg" xmlns:xlink="http://www.w3.org/1999/xlink" x="0px" y="0px"
	 viewBox="0 0 1888 736" style="enable-background:new 0 0 1888 736;" xml:space="preserve">
<style type="text/css">
	.st0{display:none;}
	.st1{display:inline;}
	.st2{display:inline;fill:#FFFFFF;}
	.st3{font-family:'GilbertBold';}
	.st4{font-size:866.9152px;}
	.st5{display:inline;fill:none;stroke:#FFFFFF;stroke-width:10;stroke-miterlimit:10;}
	.st6{fill:#FFFFFF;}
	.st7{fill:none;stroke:#FFFFFF;stroke-width:10;stroke-miterlimit:10;}
</style>
<g id="background" class="st0">
	<rect x="-34" y="-117" class="st1" width="2097" height="1047"/>
</g>
<g id="Layer_9">
	<g class="st0">
		<text transform="matrix(1 0 0 1 83.9727 724.3184)" class="st2 st3 st4">wsbc</text>
		<text transform="matrix(1 0 0 1 83.9727 724.3184)" class="st5 st3 st4">wsbc</text>
		<text transform="matrix(1 0 0 1 -13.0273 627.3184)" class="st2 st3 st4">wsbc</text>
		<text transform="matrix(1 0 0 1 -13.0273 627.3184)" class="st5 st3 st4">wsbc</text>
	</g>
	<g id="windows">
		<path class="st6" d="M1865.61,664.03l-1.59-1.59l0,0l-1.59-1.59l0,0l-1.59-1.59l0,0l-1.59-1.59v0l-1.59-1.59l0,0l-3.18-3.18l0,0
			l-1.59-1.59v0l-1.59-1.59l0,0l-1.59-1.59l0,0l-1.59-1.59v0l-1.59-1.59l0,0l-1.59-1.59l0,0l-1.59-1.59l0,0l-3.18-3.18l0,0
			l-1.59-1.59l0,0l-1.59-1.59l0,0l-1.59-1.59l0,0l-1.59-1.59l0,0l-1.59-1.59l0,0l-3.18-3.18l0,0l-1.59-1.59v0l-1.59-1.59l0,0
			l-1.59-1.59l0,0l-1.59-1.59v0l-1.59-1.59l0,0l-1.59-1.59l0,0l-1.59-1.59l0,0l-3.18-3.18l0,0l-1.59-1.59l0,0l-1.59-1.59l0,0
			l-1.59-1.59l0,0l-1.59-1.59l0,0l-1.59-1.59l0,0l-3.18-3.18v0l-1.59-1.59l0,0l-1.59-1.59l0,0l-1.59-1.59l0,0l-1.59-1.59l0,0
			l-1.59-1.59l0,0l-1.59-1.59l0,0l-1.59-1.59l0,0l-3.18-3.18l0,0l-1.59-1.59l0,0l-1.59-1.59l0,0l-1.59-1.59l0,0l-1.59-1.59v0
			l-1.59-1.59l0,0l-3.18-3.18v0l-1.59-1.59l0,0l-1.59-1.59l0,0l-1.59-1.59l0,0l-81.22-81.21l-3.54,3.55
			c-11.77,11.84-26.85,19.6-43.06,22.45c1.63-9.16,4.82-17.98,9.42-26.03c6.93-12.13,17.04-22.55,29.78-29.9
			c12.64-7.3,26.58-10.84,40.44-10.84c20.95,0,41.66,8.11,57.24,23.7l3.54,3.53l81.21-81.21l-1.59-1.59l0,0l-1.59-1.59v0l-1.59-1.59
			l0,0l-1.59-1.59l0,0l-1.59-1.59l-1.59-1.59l0,0l-1.59-1.59v0l-1.59-1.59l0,0l-1.59-1.59v0l-1.59-1.59l0,0l-1.59-1.59l0,0
			l-1.59-1.59l-1.59-1.59l0,0l-1.59-1.59l0,0l-1.59-1.59l0,0l-2.03-2.03l-1.15-1.15l0,0l-1.59-1.59l0,0l-1.59-1.59l0,0l-1.59-1.59
			l0,0l-1.59-1.59v0l-1.59-1.59l0,0l-1.59-1.59v0l-1.59-1.59l0,0l-1.59-1.59v0l-1.59-1.59l0,0l-1.59-1.59l0,0l-1.59-1.59v0
			l-1.59-1.59l0,0l-1.59-1.59l0,0l-1.59-1.59l0,0l-2.34-2.33l-0.85-0.85l0,0l-1.59-1.59l0,0l-1.59-1.59l0,0l-1.59-1.59l0,0
			l-1.59-1.59v0l-1.59-1.59l0,0l-2.34-2.33l-0.85-0.85l0,0l-1.59-1.59v0l-1.59-1.59l0,0l-1.59-1.59l0,0l-1.59-1.59v0l-1.59-1.59l0,0
			l-1.59-1.59l0,0l-1.59-1.59l0,0l-2.34-2.33l-0.85-0.85l0,0l-1.59-1.59l0,0l-1.59-1.59l0,0l-1.59-1.59l-1.59-1.59l0,0l-1.59-1.59
			l0,0l-2.34-2.33l-0.85-0.85l0,0l-1.59-1.59v0l-1.59-1.59l0,0l-1.59-1.59l0,0l-3.54-3.54c-38.21-38.21-88.35-57.34-138.43-57.33
			c-50.08-0.01-100.21,19.12-138.42,57.33c-29.45,29.45-47.55,65.98-54.31,104.11c-2.96-3.36-6.02-6.61-9.19-9.74
			c-0.53-0.53-1.06-1.07-1.59-1.59c-0.53-0.53-1.06-1.06-1.59-1.59c-0.53-0.53-1.06-1.06-1.59-1.59c-0.53-0.53-1.06-1.06-1.59-1.59
			c-0.52-0.53-1.05-1.06-1.58-1.58c-0.53-0.53-1.06-1.07-1.59-1.59c-0.53-0.53-1.06-1.06-1.59-1.59c-0.53-0.53-1.05-1.06-1.59-1.59
			c-0.53-0.53-1.06-1.06-1.59-1.59c-0.53-0.53-1.06-1.06-1.59-1.59c-0.53-0.54-1.06-1.07-1.6-1.6c-0.53-0.53-1.06-1.06-1.59-1.59
			c-0.53-0.53-1.05-1.06-1.59-1.59c-0.53-0.54-1.06-1.07-1.6-1.6c-0.53-0.53-1.06-1.06-1.59-1.59c-0.53-0.53-1.06-1.06-1.59-1.59
			c-0.53-0.53-1.06-1.07-1.59-1.59c-0.53-0.53-1.06-1.06-1.59-1.59c-0.53-0.53-1.06-1.06-1.59-1.59c-0.53-0.53-1.06-1.06-1.59-1.59
			c-0.52-0.53-1.05-1.06-1.58-1.58c-0.53-0.53-1.06-1.07-1.59-1.59c-0.53-0.53-1.06-1.06-1.59-1.59c-0.53-0.53-1.05-1.06-1.59-1.59
			c-0.53-0.53-1.06-1.06-1.59-1.59c-0.53-0.53-1.06-1.06-1.59-1.59c-0.53-0.54-1.06-1.07-1.6-1.6c-0.53-0.53-1.06-1.06-1.59-1.59
			c-0.53-0.53-1.05-1.06-1.59-1.59c-0.53-0.54-1.06-1.07-1.6-1.6c-0.53-0.53-1.06-1.06-1.59-1.59c-0.53-0.53-1.06-1.06-1.59-1.59
			c-0.53-0.53-1.06-1.07-1.59-1.59c-0.53-0.53-1.06-1.06-1.59-1.59c-0.53-0.53-1.06-1.06-1.59-1.59c-0.53-0.53-1.06-1.06-1.59-1.59
			c-0.52-0.53-1.05-1.06-1.58-1.58c-0.53-0.53-1.06-1.07-1.59-1.59c-0.53-0.53-1.06-1.06-1.59-1.59c-0.53-0.53-1.05-1.06-1.59-1.59
			c-0.53-0.53-1.06-1.06-1.59-1.59c-0.53-0.53-1.06-1.06-1.59-1.59c-0.53-0.54-1.06-1.07-1.6-1.6c-0.53-0.53-1.06-1.06-1.59-1.59
			c-0.53-0.53-1.05-1.06-1.59-1.59c-0.53-0.54-1.06-1.07-1.6-1.6c-0.53-0.53-1.06-1.06-1.59-1.59c-0.53-0.53-1.06-1.06-1.59-1.59
			c-0.53-0.53-1.06-1.07-1.59-1.59c-0.53-0.53-1.06-1.06-1.59-1.59c-0.53-0.53-1.06-1.06-1.59-1.59c-0.53-0.53-1.06-1.06-1.59-1.59
			c-0.52-0.53-1.05-1.06-1.58-1.58c-0.53-0.53-1.06-1.07-1.59-1.59c-0.53-0.53-1.06-1.06-1.59-1.59c-0.53-0.53-1.05-1.06-1.59-1.59
			c-0.53-0.53-1.06-1.06-1.59-1.59c-0.53-0.53-1.06-1.06-1.59-1.59c-33.13-33.55-77.89-54.62-126.41-57.81V111.26h-1.59v-1.59h-1.59
			v-1.59h-1.59v-1.59h-1.59v-1.59h-1.59v-1.59h-1.59v-1.59h-1.59v-1.59h-1.59v-1.59h-1.59v-1.59h-1.59v-1.59h-1.59v-1.59h-1.59
			v-1.59h-1.59v-1.59h-1.59V89h-1.59v-1.59h-1.59v-1.59h-1.59v-1.59h-1.59v-1.59h-1.59v-1.59h-1.59v-1.59h-1.59v-1.59h-1.59v-1.59
			h-1.59v-1.59h-1.59V73.1h-1.59v-1.59h-1.59v-1.59h-1.59v-1.59h-1.59v-1.59h-1.59v-1.59h-1.59v-1.59h-1.59v-1.59h-1.59v-1.59h-1.59
			v-1.59h-1.59V57.2h-1.59v-1.59h-1.59v-1.59h-1.59v-1.59h-1.59v-1.59h-1.59v-1.59h-1.59v-1.59h-1.59v-1.59h-1.59v-1.59h-1.59v-1.59
			h-1.59v-1.59h-1.59V39.7h-1.59v-1.59h-1.59v-1.59h-1.59v-1.59h-1.59v-1.59h-1.59v-1.59h-1.59v-1.59h-1.59v-1.59h-1.59v-1.59h-1.59
			v-1.59h-1.59V23.8h-1.59v-1.59h-1.59v-1.59h-1.59v-1.59h-1.59v-1.59h-114.84V324.8h-0.92v-1.59h-1.59v-1.59h-1.59v-1.59h-1.59
			v-1.59h-1.59v-1.59h-1.59v-1.59h-1.59v-1.59h-1.59v-1.59h-1.59v-1.59h-1.59v-1.59h-1.59v-1.59h-1.59v-1.59h-1.59v-1.59h-1.59
			v-1.59H979v-1.59h-1.59v-1.59h-1.59v-1.59h-1.59v-1.59h-1.59v-1.59h-1.59V293h-1.59v-1.59h-1.59v-1.59h-1.59v-1.59h-1.59v-1.59
			h-1.59v-1.59h-1.59v-1.59h-1.59v-1.59h-1.59v-1.59h-1.59v-1.59h-1.59v-1.59h-1.59v-1.59h-1.59v-1.59h-1.59v-1.59h-1.59v-1.59
			h-1.59v-1.59h-1.59v-1.59h-1.59v-1.59h-1.59v-1.59h-1.59v-1.59h-1.59v-1.59h-1.59v-1.59h-1.59v-1.59h-1.59v-1.59h-1.59v-1.59
			h-1.59v-1.59h-1.59v-1.59h-1.59v-1.59h-1.59v-1.59h-1.59v-1.59h-1.59v-1.59h-1.59v-1.59h-1.59v-1.59H766.44
			c-34.95,0-66.64,14.18-89.54,37.09c-7.88,7.88-14.73,16.79-20.32,26.53h-0.71v-1.59h-1.59v-1.59h-1.59v-1.59h-1.59v-1.59h-1.59
			v-1.59h-1.59v-1.59h-1.59v-1.59h-1.59V293h-1.59v-1.59h-1.59v-1.59h-1.59v-1.59h-1.59v-1.59h-1.59v-1.59h-1.59v-1.59h-1.59v-1.59
			h-1.59v-1.59h-1.59v-1.59h-1.59v-1.59h-1.59v-1.59h-1.59v-1.59h-1.59v-1.59h-1.59v-1.59h-1.59v-1.59h-1.59v-1.59h-1.59v-1.59
			h-1.59v-1.59h-1.59v-1.59h-1.59v-1.59h-1.59v-1.59h-1.59v-1.59h-1.59v-1.59h-1.59v-1.59h-1.59v-1.59h-1.59v-1.59h-1.59v-1.59
			h-1.59v-1.59h-1.59v-1.59h-1.59v-1.59h-1.59v-1.59h-1.59v-1.59h-5H479.02v219.21l0,0.02c0,0.19,0,0.37,0,0.56
			c0,17.7-8.11,34.26-21.72,45.13v-171.1h-1.59v-1.59h-1.59v-1.59h-1.59v-1.59h-1.59v-1.59h-1.59v-1.59h-1.59v-1.59h-1.59v-1.59
			h-1.59v-1.59h-1.59v-1.59h-1.59v-1.59h-1.59v-1.59h-1.59v-1.59h-1.59v-1.59h-1.59v-1.59h-1.59v-1.59h-1.59v-1.59h-1.59v-1.59
			h-1.59v-1.59h-1.59v-1.59h-1.59v-1.59h-1.59v-1.59h-1.59v-1.59h-1.59v-1.59h-1.59v-1.59h-1.59v-1.59h-1.59v-1.59h-1.59V293h-1.59
			v-1.59h-1.59v-1.59h-1.59v-1.59h-1.59v-1.59h-1.59v-1.59h-1.59v-1.59h-1.59v-1.59h-1.59v-1.59h-1.59v-1.59h-1.59v-1.59h-1.59
			v-1.59h-1.59v-1.59h-1.59v-1.59h-1.59v-1.59h-1.59v-1.59h-1.59v-1.59h-1.59v-1.59h-1.59v-1.59h-1.59v-1.59h-1.59v-1.59h-1.59
			v-1.59h-1.59v-1.59h-1.59v-1.59h-1.59v-1.59h-1.59v-1.59h-1.59v-1.59h-1.59v-1.59h-1.59v-1.59h-1.59v-1.59h-1.59v-1.59h-1.59
			v-1.59h-1.59v-1.59H248.64V461.3c0,15.97-6.46,30.38-16.92,40.85c-1.52,1.52-3.13,2.94-4.81,4.29v-170.5h-1.59v-1.59h-1.59v-1.59
			h-1.59v-1.59h-1.59v-1.59h-1.59v-1.59h-1.59v-1.59h-1.59v-1.59h-1.59v-1.59h-1.59v-1.59H211v-1.59h-1.59v-1.59h-1.59v-1.59h-1.59
			v-1.59h-1.59v-1.59h-1.59v-1.59h-1.59v-1.59h-1.59v-1.59h-1.59v-1.59h-1.59v-1.59h-1.59v-1.59h-1.59v-1.59h-1.59v-1.59h-1.59
			v-1.59h-1.59v-1.59h-1.59v-1.59h-1.59v-1.59h-1.59V293h-1.59v-1.59h-1.59v-1.59h-1.59v-1.59h-1.59v-1.59h-1.59v-1.59h-1.59v-1.59
			h-1.59v-1.59h-1.59v-1.59h-1.59v-1.59h-1.59v-1.59h-1.59v-1.59h-1.59v-1.59h-1.59v-1.59h-1.59v-1.59h-1.59v-1.59h-1.59v-1.59
			h-1.59v-1.59h-1.59v-1.59h-1.59v-1.59h-1.59v-1.59h-1.59v-1.59h-1.59v-1.59h-1.59v-1.59h-1.59v-1.59h-1.59v-1.59h-1.59v-1.59
			h-1.59v-1.59h-1.59v-1.59h-1.59v-1.59h-1.59v-1.59h-1.59v-1.59h-1.59v-1.59H18.24V461.3v0v0.09c0,46.94,19.03,90.81,51.17,122.63
			c0.52,0.53,1.06,1.06,1.59,1.59c0.53,0.53,1.06,1.06,1.59,1.59c0.53,0.54,1.06,1.06,1.59,1.59c0.52,0.53,1.06,1.06,1.59,1.59
			c0.53,0.53,1.06,1.06,1.59,1.59c0.53,0.54,1.06,1.07,1.59,1.59c0.52,0.53,1.05,1.06,1.59,1.59c0.53,0.54,1.06,1.06,1.59,1.59
			c0.52,0.53,1.06,1.06,1.59,1.59c0.53,0.53,1.06,1.06,1.59,1.59c0.53,0.54,1.06,1.06,1.59,1.59c0.52,0.53,1.06,1.06,1.59,1.59
			c0.53,0.53,1.06,1.06,1.59,1.59c0.53,0.53,1.06,1.06,1.59,1.59c0.53,0.53,1.06,1.06,1.59,1.59c0.53,0.53,1.06,1.06,1.59,1.59
			c0.53,0.53,1.06,1.06,1.59,1.59c0.53,0.53,1.06,1.06,1.59,1.59c0.53,0.53,1.06,1.06,1.59,1.59c0.53,0.53,1.06,1.06,1.59,1.59
			c0.52,0.53,1.06,1.06,1.59,1.59c0.53,0.54,1.06,1.06,1.59,1.59c0.53,0.53,1.06,1.06,1.59,1.59c0.53,0.53,1.06,1.06,1.59,1.59
			c0.53,0.53,1.06,1.06,1.59,1.59c0.53,0.53,1.06,1.06,1.59,1.59c0.53,0.53,1.06,1.06,1.59,1.59c0.53,0.53,1.06,1.06,1.59,1.59
			c0.53,0.53,1.06,1.06,1.59,1.59c0.53,0.54,1.06,1.06,1.59,1.59c0.53,0.53,1.06,1.06,1.59,1.59c0.53,0.53,1.06,1.06,1.59,1.59
			c0.53,0.53,1.06,1.06,1.59,1.59c0.53,0.53,1.06,1.06,1.59,1.59c0.53,0.54,1.06,1.06,1.59,1.59c0.52,0.53,1.06,1.06,1.59,1.59
			c0.53,0.53,1.06,1.06,1.59,1.59c0.53,0.54,1.06,1.07,1.59,1.6c0.52,0.53,1.05,1.06,1.59,1.59c0.53,0.54,1.06,1.06,1.59,1.59
			c0.52,0.53,1.06,1.06,1.59,1.59c0.53,0.53,1.06,1.06,1.59,1.59c0.53,0.53,1.06,1.06,1.59,1.59c0.52,0.53,1.06,1.06,1.59,1.59
			c0.53,0.53,1.06,1.06,1.59,1.59c0.53,0.53,1.06,1.06,1.59,1.59c0.52,0.53,1.06,1.06,1.59,1.59c0.53,0.54,1.06,1.07,1.6,1.6
			c0.52,0.53,1.05,1.06,1.59,1.59c0.53,0.53,1.06,1.06,1.59,1.59c0.53,0.53,1.06,1.06,1.59,1.59c0.53,0.53,1.06,1.06,1.59,1.59
			c0.53,0.53,1.06,1.06,1.59,1.59c0.53,0.53,1.06,1.06,1.59,1.59c0.52,0.53,1.06,1.06,1.59,1.59c0.53,0.54,1.06,1.07,1.6,1.6
			c0.52,0.53,1.05,1.06,1.58,1.58c0.53,0.54,1.06,1.07,1.59,1.6c15.38,15.63,33.86,28.45,54.78,37.45
			c21.96,9.45,45.14,14.05,68.14,14.05c41.84,0,83.09-15.23,115.31-44.17c32.22,28.94,73.47,44.17,115.31,44.17
			c23,0,46.18-4.6,68.14-14.04c42.73-18.38,75.3-52.73,91.98-94.31v14.26h1.59v1.59h1.59v1.59h1.59v1.59h1.59V640h1.59v1.59h1.59
			v1.59h1.59v1.59h1.59v1.59h1.59v1.59h1.59v1.59h1.59v1.59h1.59v1.59h1.59v1.59h1.59v1.59h1.59v1.59h1.59v1.59h1.59v1.59h1.59v1.59
			h1.59v1.59h1.59v1.59h1.59v1.59h1.59v1.59h1.59v1.59h1.59v1.59h1.59v1.59h1.59v1.59h1.59v1.59h1.59v1.59h1.59v1.59H723v1.59h1.59
			v1.59h1.59v1.59h1.59v1.59h1.59v1.59h1.59v1.59h1.59v1.59h1.59v1.59h1.59v1.59h1.59v1.59h1.59v1.59h1.59v1.59h1.59v1.59h1.59v1.59
			h1.59v1.59h1.59v1.59h1.59v1.59h1.59v1.59h1.59v1.59h1.59v1.59h1.59v1.59h1.59v1.59h1.59v1.59h1.59v1.59h1.59v1.59h1.59v1.59h1.59
			v1.59h1.59v1.59h1.59v1.59h1.59v1.59h155.4l0.04,0c45.04-0.6,85.87-25.04,107.93-63.35h1.51v1.59h1.59v1.59h1.59v1.59h1.59v1.59
			h1.59v1.59h1.59v1.59h1.59v1.59h1.59v1.59h1.59v1.59h1.59v1.59h1.59v1.59h1.59v1.59h1.59v1.59h1.59v1.59h1.59v1.59h1.59v1.59h1.59
			v1.59h1.59v1.59h1.59v1.59h1.59v1.59h1.59v1.59h1.59v1.59h1.59v1.59h1.59v1.59h1.59v1.59h1.59v1.59h1.59v1.59h1.59v1.59h1.59v1.59
			h1.59v1.59h1.59v1.59h1.59V715h1.59v1.59h1.59v1.59h1.59v1.59h1.59v1.59h1.59v1.59h1.59v1.59h1.59v1.59h1.59v1.59h114.84v-17.54
			c25.88,11.76,53.46,17.53,80.87,17.53c47.56,0,94.62-17.32,131.42-50.63c32.91-29.8,53.89-69.02,61.34-110.83
			c2.73,3.09,5.56,6.13,8.51,9.09c0.27,0.27,0.54,0.52,0.8,0.78c0.26,0.27,0.52,0.54,0.79,0.81c0.27,0.27,0.54,0.52,0.81,0.79
			c0.26,0.27,0.52,0.54,0.78,0.8c0.27,0.27,0.54,0.52,0.8,0.78c0.26,0.27,0.52,0.54,0.79,0.81c0.27,0.27,0.54,0.52,0.81,0.79
			c0.26,0.27,0.52,0.54,0.78,0.8c0.27,0.27,0.54,0.52,0.81,0.79c0.26,0.27,0.52,0.54,0.78,0.8c0.27,0.27,0.54,0.52,0.8,0.78
			c0.26,0.27,0.52,0.54,0.79,0.81c0.27,0.27,0.54,0.52,0.81,0.79c0.26,0.27,0.52,0.54,0.78,0.8c0.27,0.27,0.54,0.52,0.81,0.79
			c0.26,0.27,0.52,0.54,0.78,0.8c0.27,0.27,0.54,0.52,0.8,0.78c0.26,0.27,0.52,0.54,0.79,0.81c0.27,0.27,0.54,0.52,0.81,0.79
			c0.26,0.27,0.52,0.54,0.78,0.8c0.27,0.27,0.54,0.52,0.8,0.78c0.26,0.27,0.52,0.54,0.79,0.81c0.27,0.27,0.54,0.52,0.81,0.79
			c0.26,0.27,0.52,0.54,0.78,0.8c0.27,0.27,0.54,0.52,0.81,0.79c0.26,0.27,0.52,0.54,0.78,0.8c0.27,0.27,0.54,0.52,0.8,0.78
			c0.26,0.27,0.52,0.54,0.79,0.81c0.27,0.27,0.54,0.52,0.81,0.79c0.26,0.27,0.52,0.54,0.78,0.8c0.27,0.27,0.54,0.52,0.81,0.79
			c0.26,0.27,0.52,0.54,0.78,0.8c0.27,0.27,0.54,0.52,0.8,0.78c0.26,0.27,0.52,0.54,0.79,0.81c0.27,0.27,0.54,0.52,0.81,0.79
			c0.26,0.27,0.52,0.54,0.78,0.8c0.27,0.27,0.54,0.52,0.8,0.78c0.26,0.27,0.52,0.54,0.79,0.81c0.27,0.27,0.54,0.52,0.81,0.79
			c0.26,0.27,0.52,0.54,0.78,0.8c0.27,0.27,0.54,0.52,0.81,0.79c0.26,0.27,0.52,0.54,0.78,0.8c0.27,0.27,0.54,0.52,0.8,0.78
			c0.26,0.27,0.52,0.54,0.79,0.81c0.27,0.27,0.54,0.52,0.81,0.79c0.26,0.27,0.52,0.54,0.78,0.8c0.27,0.27,0.54,0.52,0.81,0.79
			c0.26,0.27,0.52,0.54,0.78,0.8c0.27,0.27,0.54,0.52,0.8,0.78c0.26,0.27,0.52,0.54,0.79,0.81c0.27,0.27,0.54,0.52,0.81,0.79
			c0.26,0.27,0.52,0.54,0.78,0.8c0.27,0.27,0.54,0.52,0.8,0.78c0.26,0.27,0.52,0.54,0.79,0.81c0.27,0.27,0.54,0.52,0.81,0.79
			c0.26,0.27,0.52,0.54,0.78,0.8c0.27,0.27,0.54,0.52,0.81,0.79c0.26,0.27,0.52,0.54,0.78,0.8c0.27,0.27,0.54,0.52,0.8,0.78
			c0.26,0.27,0.52,0.54,0.79,0.81c0.27,0.27,0.54,0.52,0.81,0.79c0.26,0.27,0.52,0.54,0.78,0.8c0.27,0.27,0.54,0.52,0.81,0.79
			c0.26,0.27,0.52,0.54,0.78,0.8c0.27,0.27,0.54,0.52,0.8,0.78c0.26,0.27,0.52,0.54,0.79,0.81c0.27,0.27,0.54,0.52,0.81,0.79
			c0.26,0.27,0.52,0.54,0.78,0.8c0.27,0.27,0.54,0.52,0.8,0.78c0.26,0.27,0.52,0.54,0.79,0.81c0.27,0.27,0.54,0.52,0.81,0.79
			c0.26,0.27,0.52,0.54,0.78,0.8c0.27,0.27,0.54,0.52,0.81,0.79c0.26,0.27,0.52,0.54,0.78,0.8c0.27,0.27,0.54,0.52,0.8,0.78
			c0.26,0.27,0.52,0.54,0.79,0.81c0.27,0.27,0.54,0.52,0.81,0.79c0.26,0.27,0.52,0.54,0.78,0.8c0.27,0.27,0.54,0.52,0.81,0.79
			c0.26,0.27,0.52,0.54,0.78,0.8c0.27,0.27,0.54,0.52,0.8,0.78c0.26,0.27,0.52,0.54,0.79,0.81c0.27,0.27,0.54,0.52,0.81,0.79
			c0.26,0.27,0.52,0.54,0.78,0.8c0.27,0.27,0.54,0.52,0.8,0.78c0.26,0.27,0.52,0.54,0.79,0.81c0.27,0.27,0.54,0.52,0.81,0.79
			c0.26,0.27,0.52,0.54,0.78,0.8c0.27,0.27,0.54,0.52,0.81,0.79c0.26,0.27,0.52,0.54,0.78,0.8c0.27,0.27,0.54,0.52,0.8,0.78
			c0.26,0.27,0.52,0.54,0.79,0.81c0.27,0.27,0.54,0.52,0.81,0.79c0.26,0.27,0.52,0.54,0.78,0.8c0.27,0.27,0.54,0.52,0.81,0.79
			c0.26,0.27,0.52,0.54,0.78,0.8c0.27,0.27,0.54,0.52,0.8,0.78c0.26,0.27,0.52,0.54,0.79,0.81c0.27,0.27,0.54,0.52,0.81,0.79
			c0.26,0.27,0.52,0.54,0.78,0.8c0.27,0.27,0.54,0.52,0.8,0.78c0.26,0.27,0.52,0.54,0.79,0.81c0.27,0.27,0.54,0.52,0.81,0.79
			c0.26,0.27,0.52,0.54,0.78,0.8c0.27,0.27,0.54,0.52,0.81,0.79c0.26,0.27,0.52,0.54,0.78,0.8c0.27,0.27,0.54,0.52,0.8,0.78
			c0.26,0.27,0.52,0.54,0.79,0.81c0.27,0.27,0.54,0.52,0.81,0.79c0.26,0.27,0.52,0.54,0.78,0.8c0.27,0.27,0.54,0.52,0.81,0.79
			c0.26,0.27,0.52,0.54,0.78,0.8c0.27,0.27,0.54,0.52,0.8,0.78c0.26,0.27,0.52,0.54,0.79,0.81c0.27,0.27,0.54,0.52,0.81,0.79
			c0.26,0.27,0.52,0.54,0.78,0.8c0.27,0.27,0.54,0.52,0.8,0.78c0.26,0.27,0.52,0.54,0.79,0.81c38.21,38.21,88.34,57.34,138.42,57.34
			c50.08,0.01,100.22-19.12,138.43-57.34l3.54-3.54L1865.61,664.03L1865.61,664.03z M684.27,556.71
			c0.03,66.97-39.82,127.51-101.33,153.98c-61.52,26.46-132.88,13.75-181.47-32.33c-48.6,46.08-119.96,58.79-181.48,32.33
			c-61.52-26.46-101.37-87.01-101.33-153.98V342.53h104.84v214.18c0,34.67,28.11,62.77,62.77,62.77c34.68,0,62.78-28.11,62.78-62.77
			V342.53h104.84v214.18c-0.23,22.57,11.69,43.52,31.21,54.87c19.51,11.35,43.61,11.35,63.12,0c19.51-11.35,31.43-32.3,31.21-54.87
			V342.53h104.84V556.71z M687.68,518.8v-49.75c0.12,0.12,0.23,0.24,0.35,0.36c0.27,0.27,0.54,0.52,0.81,0.79
			c0.26,0.27,0.52,0.54,0.78,0.8c0.27,0.27,0.54,0.53,0.81,0.79c0.26,0.27,0.52,0.54,0.78,0.8c0.27,0.27,0.54,0.52,0.81,0.79
			c0.26,0.27,0.52,0.54,0.78,0.8c0.27,0.27,0.54,0.52,0.81,0.79c0.26,0.27,0.52,0.54,0.78,0.8c0.27,0.27,0.54,0.53,0.81,0.79
			c0.26,0.27,0.52,0.54,0.78,0.8c0.27,0.27,0.54,0.52,0.81,0.79c0.26,0.27,0.52,0.54,0.78,0.8c0.27,0.27,0.54,0.52,0.81,0.79
			c0.26,0.27,0.52,0.54,0.78,0.8c0.27,0.27,0.54,0.53,0.81,0.79c0.26,0.27,0.52,0.54,0.78,0.8c0.27,0.27,0.54,0.52,0.81,0.79
			c0.26,0.27,0.52,0.54,0.78,0.8c0.27,0.27,0.54,0.53,0.81,0.79c0.26,0.27,0.52,0.54,0.78,0.8c0.27,0.27,0.54,0.52,0.81,0.79
			c0.26,0.27,0.52,0.54,0.78,0.8c0.27,0.27,0.54,0.52,0.81,0.79c0.26,0.27,0.52,0.54,0.78,0.8c0.27,0.27,0.54,0.53,0.81,0.79
			c0.26,0.27,0.52,0.54,0.78,0.8c0.27,0.27,0.54,0.52,0.81,0.79c0.26,0.27,0.52,0.54,0.78,0.8c0.27,0.27,0.54,0.52,0.81,0.79
			c0.26,0.27,0.52,0.54,0.78,0.8c0.27,0.27,0.54,0.53,0.81,0.79c0.26,0.27,0.52,0.54,0.78,0.8c0.27,0.27,0.54,0.52,0.81,0.79
			c0.26,0.27,0.52,0.54,0.78,0.8c0.27,0.27,0.54,0.53,0.81,0.79c0.26,0.27,0.52,0.54,0.78,0.8c0.27,0.27,0.54,0.52,0.81,0.79
			c0.26,0.27,0.52,0.54,0.78,0.8c0.27,0.27,0.54,0.52,0.81,0.79c0.26,0.27,0.52,0.54,0.78,0.8c0.27,0.27,0.54,0.53,0.81,0.79
			c0.26,0.27,0.52,0.54,0.78,0.8c0.27,0.27,0.54,0.52,0.81,0.79c0.26,0.27,0.52,0.54,0.78,0.8c0.27,0.27,0.54,0.52,0.81,0.79
			c0.26,0.27,0.52,0.54,0.78,0.8c0.27,0.27,0.54,0.53,0.81,0.79c0.26,0.27,0.52,0.54,0.78,0.8c0.27,0.27,0.54,0.52,0.81,0.79
			c0.26,0.27,0.52,0.54,0.78,0.8c0.27,0.27,0.54,0.53,0.81,0.79c0.26,0.27,0.52,0.54,0.78,0.8c0.27,0.27,0.54,0.52,0.81,0.79
			c0.26,0.27,0.52,0.54,0.78,0.8c0.27,0.27,0.54,0.52,0.81,0.79c0.26,0.27,0.52,0.54,0.78,0.8c0.27,0.27,0.54,0.53,0.81,0.79
			c0.26,0.27,0.52,0.54,0.78,0.8c0.27,0.27,0.54,0.52,0.81,0.79c0.26,0.27,0.52,0.54,0.78,0.8c0.27,0.27,0.54,0.52,0.81,0.79
			c0.26,0.27,0.52,0.54,0.78,0.8c0.03,0.03,0.06,0.06,0.09,0.09H687.68z M1016,63.46l27,32.48v68.59l-27-32.48V63.46z M1016,153.46
			l27,32.48v68.59l-27-32.48V153.46z M1016,241.46l27,32.48v68.59l-27-32.48V241.46z M1016,328.46l27,32.48v68.59l-27-32.48V328.46z
			 M1016,412.46l27,32.48v68.59l-27-32.48V412.46z M1037.05,648.26c-18.4,45.28-62.11,75.14-110.98,75.79H775.71V619.21h148.73
			c9.23,0,16.71-7.48,16.71-16.71c0-9.23-7.48-16.71-16.71-16.71h-62.58c-67.18,0-121.63-54.46-121.63-121.63
			c0-67.18,54.45-121.63,121.63-121.63h148.73v104.84H861.85c-9.27,0-16.78,7.51-16.78,16.78s7.52,16.78,16.78,16.78h62.58
			c32.25-0.09,63.2,12.73,85.95,35.6v0.01C1044.94,551.09,1055.45,602.99,1037.05,648.26z M1002.18,450.78v50.49l-0.98-0.99
			c-0.11-0.11-0.23-0.22-0.34-0.33l-1.25-1.26c-0.11-0.11-0.23-0.22-0.34-0.34l-1.25-1.25c-0.11-0.11-0.23-0.22-0.34-0.33
			l-1.25-1.26c-0.11-0.11-0.23-0.22-0.34-0.34l-1.25-1.25c-0.11-0.11-0.23-0.22-0.34-0.34l-1.25-1.25
			c-0.11-0.11-0.23-0.22-0.34-0.34l-1.25-1.25c-0.11-0.11-0.23-0.22-0.34-0.34l-1.25-1.25c-0.11-0.11-0.23-0.22-0.34-0.34
			l-1.25-1.25c-0.11-0.11-0.23-0.22-0.34-0.34l-1.25-1.25c-0.11-0.11-0.23-0.22-0.34-0.34l-1.25-1.25
			c-0.11-0.11-0.23-0.22-0.34-0.34l-1.25-1.25c-0.11-0.11-0.23-0.22-0.34-0.34l-1.25-1.25c-0.11-0.11-0.23-0.22-0.34-0.34
			l-1.25-1.25c-0.11-0.11-0.23-0.22-0.34-0.34l-1.25-1.25c-0.11-0.11-0.23-0.22-0.34-0.33l-1.25-1.26
			c-0.11-0.11-0.23-0.22-0.34-0.33l-1.25-1.26c-0.11-0.11-0.23-0.22-0.34-0.33l-1.25-1.26c-0.11-0.11-0.23-0.22-0.34-0.33
			l-1.25-1.26c-0.11-0.11-0.23-0.22-0.34-0.34l-1.25-1.25c-0.11-0.11-0.23-0.22-0.34-0.34l-1.25-1.25
			c-0.11-0.11-0.23-0.22-0.34-0.34l-1.25-1.25c-0.11-0.11-0.23-0.22-0.34-0.34l-1.25-1.25c-0.11-0.11-0.23-0.22-0.34-0.34
			l-1.25-1.25c-0.11-0.11-0.23-0.22-0.34-0.34l-1.25-1.25c-0.11-0.11-0.23-0.22-0.34-0.34l-1.25-1.25
			c-0.11-0.11-0.23-0.22-0.34-0.34l-1.25-1.25c-0.11-0.11-0.23-0.22-0.34-0.34l-1.25-1.25c-0.11-0.11-0.23-0.22-0.34-0.34
			l-1.25-1.25c-0.11-0.11-0.23-0.22-0.34-0.34l-1.25-1.25c-0.11-0.11-0.23-0.22-0.34-0.34l-1.25-1.25
			c-0.11-0.11-0.23-0.22-0.34-0.33l-1.25-1.26c-0.07-0.07-0.14-0.14-0.21-0.21H1002.18z M1083,553.54l-27-32.48v-68.59l27,32.48
			V553.54z M1083,469.54l-27-32.48v-68.59l27,32.48V469.54z M1083,382.54l-27-32.48v-68.59l27,32.48V382.54z M1083,294.54l-27-32.48
			v-68.59l27,32.48V294.54z M1083,204.54l-27-32.48v-68.59l27,32.48V204.54z M1421.38,674.96
			c-58.48,52.93-143.51,64.42-213.94,28.89v20.46h-104.84V117.85h104.84v245.4c26.63-13.49,56.07-20.5,85.92-20.46
			c78.88,0,149.62,48.55,177.99,122.16C1499.71,538.55,1479.85,622.01,1421.38,674.96z M1591.94,667.21
			c-74.49-74.49-74.49-195.28,0-269.78c74.49-74.49,195.28-74.49,269.78,0l-74.14,74.14c-27.5-27.49-70.04-33.09-103.72-13.64
			c-33.68,19.45-50.09,59.08-40.02,96.64c10.06,37.56,44.1,63.68,82.99,63.68c22.8,0.06,44.67-9,60.75-25.17l74.14,74.13
			C1787.22,741.71,1666.43,741.7,1591.94,667.21z"/>
		<path class="st6" d="M1293,628.5c-21.98,0-43.49-7.59-60.57-21.38c-22.83-18.42-35.93-45.8-35.93-75.12s13.1-56.7,35.93-75.12
			c17.07-13.79,38.58-21.38,60.57-21.38c22.29,0,44.03,7.78,61.23,21.91c22.42,18.42,35.27,45.61,35.27,74.59
			s-12.86,56.17-35.27,74.59C1337.03,620.72,1315.29,628.5,1293,628.5z M1293,444.5c-20.22,0-39.21,6.7-54.91,19.38
			c-20.71,16.71-32.59,41.54-32.59,68.12s11.88,51.41,32.58,68.12c15.7,12.68,34.69,19.38,54.92,19.38
			c20.21,0,39.92-7.06,55.51-19.87c20.33-16.7,31.99-41.36,31.99-67.63s-11.66-50.93-31.99-67.63
			C1332.92,451.56,1313.21,444.5,1293,444.5z"/>
		<path class="st6" d="M1239.44,612.29l-4.95-4C1211.3,589.58,1198,561.77,1198,532s13.3-57.58,36.49-76.29l4.95-4l3.7,5.18
			C1256.4,475.46,1264,502.83,1264,532s-7.6,56.54-20.86,75.11L1239.44,612.29z M1236.99,469.44
			C1219.76,485.66,1210,508.11,1210,532s9.76,46.34,26.99,62.56c9.59-16.32,15.01-38.68,15.01-62.56S1246.58,485.76,1236.99,469.44z
			"/>
		<path class="st6" d="M1347.18,611.86l-3.72-5.3c-13-18.54-20.46-45.71-20.46-74.56s7.46-56.02,20.46-74.56l3.72-5.3l5,4.11
			c22.76,18.71,35.82,46.31,35.82,75.75s-13.06,57.04-35.82,75.75L1347.18,611.86z M1349.65,470.05
			c-9.36,16.27-14.65,38.41-14.65,61.95s5.29,45.68,14.65,61.95c16.82-16.18,26.35-38.4,26.35-61.95S1366.48,486.23,1349.65,470.05z
			"/>
	</g>
	<g>
		<path class="st7" d="M684.27,341.53v214.18c0.03,66.97-39.82,127.51-101.33,153.98c-61.52,26.46-132.88,13.75-181.47-32.33
			c-48.6,46.08-119.96,58.79-181.48,32.33c-61.52-26.46-101.37-87.01-101.33-153.98V341.53h104.84v214.18
			c0,34.67,28.11,62.77,62.77,62.77c34.68,0,62.78-28.11,62.78-62.77V341.53h104.84v214.18c-0.23,22.57,11.69,43.52,31.21,54.87
			c19.51,11.35,43.61,11.35,63.12,0c19.51-11.35,31.43-32.3,31.21-54.87V341.53H684.27z"/>
		<path class="st7" d="M1010.38,515.54c34.56,34.55,45.07,86.45,26.67,131.73c-18.4,45.28-62.11,75.14-110.98,75.79H775.71V618.21
			h148.73c9.23,0,16.71-7.48,16.71-16.71c0-9.23-7.48-16.71-16.71-16.71h-62.58c-67.18,0-121.63-54.46-121.63-121.63
			c0-67.18,54.45-121.63,121.63-121.63h148.73v104.84H861.85c-9.27,0-16.78,7.51-16.78,16.78s7.52,16.78,16.78,16.78h62.58
			C956.68,479.84,987.63,492.66,1010.38,515.54L1010.38,515.54z"/>
		<path class="st7" d="M1471.34,463.95c28.37,73.6,8.5,157.07-49.97,210.01c-58.48,52.93-143.51,64.42-213.94,28.89v20.46h-104.84
			V116.85h104.84v245.4c26.63-13.49,56.07-20.5,85.92-20.46C1372.24,341.79,1442.98,390.34,1471.34,463.95z M1293.36,618.47
			c47.44-0.06,85.87-38.5,85.92-85.94c0-47.45-38.46-85.92-85.92-85.92c-47.45,0-85.92,38.47-85.92,85.92
			c0,47.46,38.47,85.92,85.92,85.92V618.47z"/>
		<path class="st7" d="M1787.58,592.08l74.14,74.13c-74.5,74.5-195.29,74.49-269.78,0c-74.49-74.49-74.49-195.28,0-269.78
			c74.49-74.49,195.28-74.49,269.78,0l-74.14,74.14c-27.5-27.49-70.04-33.09-103.72-13.64c-33.68,19.45-50.09,59.08-40.02,96.64
			c10.06,37.56,44.1,63.68,82.99,63.68C1749.63,617.3,1771.5,608.24,1787.58,592.08z"/>
	</g>
</g>
</svg>
